# xmcd
#
# Track frame offsets:
#	150
#	14015
#	35860
#	49370
#	61610
#	77305
#	89937
#	116367
#	133662
#	156770
#	172120
#	196437
#	211442
#	231485
#	262332
#
# Disc length: 4177 seconds
# Revision: 5
# Processed by: cddbd v1.5.2PL0 Copyright (c) Steve Scherf et al.
# Submitted via: dBpowerAMP V12.0
#
DISCID=e2104f0f
DTITLE=Duke Robillard - Duke's Blues
DYEAR=1994
DGENRE=Blues
TTITLE0=Midnight Cannon Ball
TTITLE1=Glamour Girl
TTITLE2=I Still Love You Baby
TTITLE3=Texas Hop
TTITLE4=Don't Leave me Baby
TTITLE5=Tell me Why
TTITLE6=Something to Remember You by
TTITLE7=Love Slipped in
TTITLE8=Information Blues
TTITLE9=Don't Treat me Like That
TTITLE10=Never Let You go
TTITLE11=Gee I Wish
TTITLE12=My Heart is Cryin'
TTITLE13=Red's Riff
TTITLE14=Dyin' Flu
EXTD=
EXTT0=
EXTT1=
EXTT2=
EXTT3=
EXTT4=
EXTT5=
EXTT6=
EXTT7=
EXTT8=
EXTT9=
EXTT10=
EXTT11=
EXTT12=
EXTT13=
EXTT14=
PLAYORDER=
